<?xml version="1.0" encoding="UTF-8"?>
<svg id="Flat" xmlns="http://www.w3.org/2000/svg" version="1.1" viewBox="0 0 800 800">
  <!-- Generator: Adobe Illustrator 30.0.0, SVG Export Plug-In . SVG Version: 2.1.1 Build 123)  -->
  <defs>
    <style>
      .st0 {
        fill: #fff;
      }
    </style>
  </defs>
  <path class="st0" d="M400,256.25c-79.39,0-143.75,64.36-143.75,143.75s64.36,143.75,143.75,143.75,143.75-64.36,143.75-143.75h0c-.09-79.35-64.4-143.66-143.75-143.75ZM400,468.75c-37.97,0-68.75-30.78-68.75-68.75s30.78-68.75,68.75-68.75,68.75,30.78,68.75,68.75c-.04,37.95-30.8,68.71-68.75,68.75ZM550,62.5H250c-103.5.12-187.38,84-187.5,187.5v300c.12,103.5,84,187.38,187.5,187.5h300c103.5-.12,187.38-84,187.5-187.5V250c-.12-103.5-84-187.38-187.5-187.5ZM662.5,550c-.07,62.1-50.4,112.43-112.5,112.5H250c-62.1-.07-112.43-50.4-112.5-112.5V250c.07-62.1,50.4-112.43,112.5-112.5h300c62.1.07,112.43,50.4,112.5,112.5v300ZM612.5,237.5c0,27.61-22.39,50-50,50s-50-22.39-50-50,22.39-50,50-50c27.6.03,49.97,22.4,50,50Z"/>
</svg>